<svg width="55" height="60" viewBox="0 0 55 60" fill="none" xmlns="http://www.w3.org/2000/svg">
<path d="M54.75 29.7737L52.2912 30.2262C52.4291 30.9763 52.4989 31.7373 52.5 32.5C52.5023 34.503 52.0232 36.4772 51.1031 38.2564C50.183 40.0356 48.8488 41.5676 47.2128 42.7234C45.5769 43.8792 43.6872 44.625 41.7028 44.8978C39.7185 45.1707 37.6976 44.9627 35.8104 44.2913C33.9233 43.62 32.2251 42.505 30.8589 41.0402C29.4927 39.5754 28.4985 37.8037 27.9601 35.8744C27.4216 33.9451 27.3547 31.9147 27.765 29.9541C28.1753 27.9935 29.0507 26.1603 30.3175 24.6087C30.5985 24.3704 30.8457 24.0949 31.0525 23.79C32.509 22.2892 34.3192 21.1783 36.3169 20.5593C38.3146 19.9403 40.4357 19.833 42.4857 20.2472C44.5356 20.6614 46.4487 21.5839 48.0492 22.93C49.6498 24.2761 50.8867 26.0027 51.6462 27.9512L53.9762 27.0412C53.3419 25.4224 52.4332 23.925 51.29 22.615C52.867 20.8694 53.7431 18.6024 53.75 16.25C53.75 6.07122 51.225 0.906219 51.125 0.691219C51.0008 0.44175 50.7968 0.240935 50.5454 0.120676C50.294 0.000416946 50.0097 -0.0323893 49.7375 0.0274688C38.3312 2.47247 33.9625 10.0637 32.2887 15.4675C31.6462 11.3487 29.0387 2.51622 18.4137 0.0324688C18.1329 -0.0332816 17.8379 0.000124594 17.5789 0.127023C17.3199 0.253921 17.1127 0.466502 16.9925 0.728719C16.0135 3.30488 15.4237 6.01251 15.2425 8.76247C15.1637 8.76247 15.0862 8.74997 15.0075 8.74997C12.2607 8.74902 9.56644 9.50229 7.21845 10.9276C4.87046 12.353 2.95893 14.3957 1.69231 16.833C0.425696 19.2703 -0.147368 22.0086 0.0356156 24.7492C0.218599 27.4899 1.15061 30.1277 2.72999 32.375L4.77249 30.935C3.64312 29.3277 2.90843 27.4769 2.62801 25.5327C2.3476 23.5885 2.52934 21.6055 3.15851 19.7446C3.78769 17.8838 4.84657 16.1974 6.24929 14.8222C7.65202 13.447 9.3591 12.4218 11.2321 11.8297C13.1051 11.2376 15.0913 11.0952 17.0296 11.4142C18.9678 11.7331 20.8037 12.5044 22.3882 13.6654C23.9727 14.8265 25.2613 16.3446 26.1494 18.0967C27.0376 19.8488 27.5003 21.7856 27.5 23.75C27.5 23.9237 27.4837 24.0925 27.4762 24.2637C25.8595 26.7062 24.9983 29.5709 25 32.5C25 32.9787 25.0275 33.45 25.0712 33.9162C22.5248 31.6123 19.2641 30.2533 15.8351 30.067C12.4062 29.8807 9.0174 30.8783 6.23635 32.8928C3.4553 34.9072 1.45094 37.8162 0.559027 41.1323C-0.33289 44.4485 -0.0581911 47.9704 1.33711 51.1081C2.73241 54.2459 5.16356 56.8088 8.22331 58.3677C11.2831 59.9266 14.7856 60.3868 18.1442 59.671C21.5027 58.9553 24.5134 57.1072 26.6717 54.4363C28.8301 51.7654 30.0051 48.434 30 45C30 44.5212 29.9725 44.05 29.9287 43.5837C32.0746 45.5434 34.7444 46.8363 37.6124 47.3048C40.4805 47.7733 43.4228 47.3971 46.0807 46.222C48.7387 45.047 50.9972 43.1239 52.581 40.6874C54.1647 38.2508 55.0052 35.406 55 32.5C54.9995 31.5855 54.9158 30.673 54.75 29.7737ZM51.25 16.25C51.2455 17.9512 50.6201 19.5923 49.4912 20.865C47.1185 18.9273 44.2065 17.7676 41.1512 17.5437C43.6332 12.771 46.4656 8.18889 49.625 3.83497C50.7769 7.87033 51.3245 12.0541 51.25 16.25ZM46.7987 3.46497C43.6253 7.95873 40.7924 12.6836 38.3237 17.6C36.8349 17.7663 35.3797 18.1565 34.0075 18.7575C34.5437 15.2848 36.0186 12.0248 38.273 9.32953C40.5274 6.63429 43.4755 4.60639 46.7987 3.46497ZM17.7125 9.00872C17.8934 6.88677 18.2939 4.7893 18.9075 2.74997C29.825 5.98122 30 17.125 30 17.6137C30.017 18.6461 29.9104 19.6767 29.6825 20.6837C29.0677 17.7711 27.6019 15.1065 25.4709 13.028C23.3398 10.9495 20.6396 9.55061 17.7125 9.00872ZM15 57.5C12.5277 57.5 10.111 56.7669 8.05537 55.3933C5.99975 54.0198 4.39759 52.0676 3.4515 49.7835C2.5054 47.4994 2.25786 44.9861 2.74018 42.5613C3.22249 40.1366 4.413 37.9093 6.16116 36.1611C7.90932 34.413 10.1366 33.2225 12.5614 32.7402C14.9861 32.2578 17.4995 32.5054 19.7835 33.4515C22.0676 34.3976 24.0198 35.9997 25.3934 38.0553C26.7669 40.111 27.5 42.5277 27.5 45C27.4964 48.3141 26.1782 51.4914 23.8348 53.8348C21.4914 56.1782 18.3141 57.4963 15 57.5Z" fill="#001A1F"/>
<path d="M7.5 40C5.39625 40 3.75 42.1962 3.75 45C3.75 47.8038 5.39625 50 7.5 50C9.60375 50 11.25 47.8038 11.25 45C11.25 42.1962 9.60375 40 7.5 40ZM7.5 47.5C6.99 47.5 6.25 46.5262 6.25 45C6.25 43.4738 6.99 42.5 7.5 42.5C8.01 42.5 8.75 43.4738 8.75 45C8.75 46.5262 8.01 47.5 7.5 47.5Z" fill="#001A1F"/>
<path d="M20 17.5C20 15.3963 17.8038 13.75 15 13.75C12.1962 13.75 10 15.3963 10 17.5C10 19.6037 12.1962 21.25 15 21.25C17.8038 21.25 20 19.6037 20 17.5ZM12.5 17.5C12.5 16.99 13.4738 16.25 15 16.25C16.5262 16.25 17.5 16.99 17.5 17.5C17.5 18.01 16.5262 18.75 15 18.75C13.4738 18.75 12.5 18.01 12.5 17.5Z" fill="#001A1F"/>
<path d="M35 26.25C35 28.3537 37.1962 30 40 30C42.8038 30 45 28.3537 45 26.25C45 24.1463 42.8038 22.5 40 22.5C37.1962 22.5 35 24.1463 35 26.25ZM42.5 26.25C42.5 26.76 41.5262 27.5 40 27.5C38.4738 27.5 37.5 26.76 37.5 26.25C37.5 25.74 38.4738 25 40 25C41.5262 25 42.5 25.74 42.5 26.25Z" fill="#001A1F"/>
</svg>
