<svg width="57" height="60" viewBox="0 0 57 60" fill="none" xmlns="http://www.w3.org/2000/svg">
<path fill-rule="evenodd" clip-rule="evenodd" d="M25.7062 57.1979C26.0412 55.5472 27.7392 50.7676 36.1604 50.9681C36.1604 50.9681 37.1827 41.7845 42.604 39.4328C42.3523 38.7236 42.2147 37.96 42.2147 37.1643C42.2147 33.671 44.8561 30.7948 48.2505 30.4239C48.4952 30.3972 48.7438 30.3834 48.9955 30.3834C50.2775 30.3834 51.4762 30.7391 52.4987 31.3573C54.4632 32.5449 55.7764 34.7011 55.7764 37.1643C55.7764 40.8349 52.8596 43.8239 49.2175 43.9411C48.0158 53.3514 40.345 61.9075 25.6259 57.7488C25.6259 57.7488 25.6366 57.5409 25.7062 57.1979Z" fill="#73CA5B"/>
<path fill-rule="evenodd" clip-rule="evenodd" d="M16.9292 43.2744C23.9988 48.6751 25.6259 57.7489 25.6259 57.7489C12.9866 57.7489 2.74048 47.1233 2.74048 34.016C2.74048 30.7985 3.35923 27.7312 4.47778 24.9332C4.44532 25.1754 2.97392 36.5466 13.154 41.0391C14.5585 41.6588 15.8118 42.4208 16.9292 43.2744Z" fill="#A6F074"/>
<path fill-rule="evenodd" clip-rule="evenodd" d="M14.607 32.8052C18.9661 35.227 16.9291 43.2743 16.9291 43.2743C15.8117 42.4207 14.5584 41.6587 13.154 41.0391C2.9738 36.5466 4.44521 25.1753 4.47767 24.9332L4.47661 24.9325C-1.486 20.9249 1.88349 15.8771 5.57314 16.1332L5.57302 16.1343C6.68536 16.2114 7.82677 16.7698 8.75032 17.9848L8.75103 17.9855L8.75173 17.9862C10.7804 19.9905 10.7323 23.3605 10.7323 23.3605C14.7891 26.0152 14.607 32.8052 14.607 32.8052Z" fill="#73CA5B"/>
<path fill-rule="evenodd" clip-rule="evenodd" d="M48.2467 30.398C46.6559 19.6125 38.0642 11.2168 27.4323 10.3559C27.4323 10.3559 30.0166 5.87113 36.7183 7.63445L36.7194 7.63328C38.1711 8.01554 39.8162 8.69102 41.6699 9.76879C41.6699 9.76879 47.2399 7.34711 49.4194 13.2803C56.561 13.9013 57.4696 21.5767 53.0521 25.9943C53.0521 25.9943 54.3671 28.0019 52.4987 31.3573C51.4763 30.739 50.2775 30.3834 48.9956 30.3834C48.7437 30.3834 48.4952 30.3975 48.2506 30.4244C48.2492 30.4155 48.248 30.4067 48.2467 30.398Z" fill="#A6F074"/>
<path fill-rule="evenodd" clip-rule="evenodd" d="M48.2467 30.398C48.248 30.4067 48.2492 30.4155 48.2505 30.4239C44.856 30.7948 42.2146 33.6711 42.2146 37.1642C42.2146 37.9599 42.3522 38.7235 42.604 39.4328C37.1826 41.7844 36.1603 50.9681 36.1603 50.9681C27.7391 50.7676 26.0412 55.5472 25.7062 57.1979C25.6367 57.5409 25.6259 57.7489 25.6259 57.7489C25.6259 57.7489 23.9987 48.6751 16.9292 43.2744C16.9292 43.2744 18.9662 35.2271 14.607 32.8053C14.607 32.8053 14.7891 26.0152 10.7323 23.3606C10.7323 23.3606 10.7803 19.9906 8.75183 17.9862C12.9353 13.2521 18.9457 10.283 25.6259 10.283C26.2339 10.283 26.8361 10.3086 27.4321 10.3573C38.0638 11.2184 46.6559 19.6127 48.2467 30.398Z" fill="#DCFFB6"/>
<path fill-rule="evenodd" clip-rule="evenodd" d="M36.7193 7.63328C36.7193 7.63328 35.1312 1.17156 27.6239 1.17156C20.1167 1.17156 19.148 6.49937 19.148 6.49937C19.148 6.49937 6.75519 5.18277 5.57324 16.1332L5.57312 16.1343C6.68546 16.2114 7.82675 16.7698 8.75043 17.9848L8.75183 17.9862C12.9353 13.2521 18.9457 10.2829 25.6259 10.2829C26.2339 10.2829 26.8361 10.3086 27.4321 10.3573L27.4322 10.3558C27.4322 10.3558 30.0166 5.87113 36.7183 7.63445L36.7193 7.63328Z" fill="#73CA5B"/>
<path d="M27.4322 10.3559C27.4322 10.3559 31.2564 3.71454 41.6699 9.76879C41.6699 9.76879 47.2399 7.34711 49.4194 13.2803C56.561 13.9013 57.4696 21.5767 53.0521 25.9943C53.0521 25.9943 54.3671 28.0019 52.4987 31.3573L52.4985 31.3574C51.4762 30.7393 50.2775 30.3834 48.9956 30.3834C48.7437 30.3834 48.4952 30.3975 48.2506 30.4244C46.6699 19.6263 38.0725 11.2191 27.4321 10.3574L27.4322 10.3559Z" stroke="black" stroke-width="2.46094" stroke-miterlimit="2.613" stroke-linecap="round" stroke-linejoin="round"/>
<path d="M7.59931 48.6386C11.7883 54.1846 18.3058 57.7488 25.6259 57.7488C25.6259 57.7488 25.9892 50.726 36.1605 50.9681C36.1605 50.9681 37.1826 41.7844 42.604 39.4327C42.3523 38.7235 42.2147 37.9599 42.2147 37.1642C42.2147 33.6711 44.8563 30.7953 48.2507 30.4243C46.5817 19.0245 37.024 10.1355 25.335 10.2849M5.6997 45.6967C5.70942 45.7144 5.71915 45.7321 5.72876 45.7498M4.47778 24.9332C3.35923 27.7312 2.74048 30.7985 2.74048 34.016C2.74048 36.5201 3.11466 38.9339 3.80782 41.1999M17.2395 11.9273C13.9769 13.2607 11.0806 15.3496 8.75114 17.9855M20.4045 10.9035C20.3992 10.9048 20.394 10.9062 20.3887 10.9074" stroke="black" stroke-width="2.46094" stroke-miterlimit="2.613" stroke-linecap="round" stroke-linejoin="round"/>
<path d="M33.1939 20.3033C33.1939 20.3033 19.6713 27.7371 25.7061 57.1979" stroke="black" stroke-width="2.46094" stroke-miterlimit="2.613" stroke-linecap="round" stroke-linejoin="round"/>
<path d="M25.6258 57.7488C25.6258 57.7488 23.4437 45.5799 13.1539 41.039C2.97385 36.5465 4.44526 25.1752 4.47772 24.9332" stroke="black" stroke-width="2.46094" stroke-miterlimit="2.613" stroke-linecap="round" stroke-linejoin="round"/>
<path d="M48.9955 30.3833C45.2505 30.3833 42.2147 33.4192 42.2147 37.1642C42.2147 37.9599 42.3523 38.7235 42.604 39.4328C37.1825 41.7844 36.1604 50.968 36.1604 50.968C25.9891 50.7259 25.6259 57.7488 25.6259 57.7488C40.345 61.9075 48.0158 53.3513 49.2175 43.941C52.8596 43.8238 55.7763 40.8349 55.7763 37.1642C55.7763 33.4192 52.7405 30.3833 48.9955 30.3833Z" stroke="black" stroke-width="2.46094" stroke-miterlimit="2.613" stroke-linecap="round" stroke-linejoin="round"/>
<path d="M14.607 32.8052C18.9662 35.227 16.9291 43.2743 16.9291 43.2743C15.8239 42.43 14.5855 41.6753 13.1996 41.0593L13.154 41.0391C2.97384 36.5466 4.44525 25.1753 4.47771 24.9332C4.47771 24.9332 4.47747 24.9329 4.47665 24.9325C-3.2835 19.7168 4.76306 12.7392 8.75036 17.9848C10.7805 19.9891 10.7324 23.3605 10.7324 23.3605C14.7892 26.0152 14.607 32.8052 14.607 32.8052Z" stroke="black" stroke-width="2.46094" stroke-miterlimit="2.613" stroke-linecap="round" stroke-linejoin="round"/>
<path d="M36.7183 7.63445L36.7193 7.63328C36.7193 7.63328 35.1312 1.17168 27.6239 1.17168C20.1167 1.17168 19.1479 6.49937 19.1479 6.49937C19.1479 6.49937 6.75507 5.18277 5.57324 16.1332L5.57312 16.1343C6.68546 16.2114 7.82675 16.7698 8.75043 17.9848L8.75183 17.9862" stroke="black" stroke-width="2.46094" stroke-miterlimit="2.613" stroke-linecap="round" stroke-linejoin="round"/>
<path d="M27.1992 27.6772C29.6209 25.2858 35.665 24.0837 39.4185 27.1411" stroke="black" stroke-width="2.46094" stroke-miterlimit="2.613" stroke-linecap="round" stroke-linejoin="round"/>
<path d="M25.1175 33.8267C25.1175 33.8267 22.2299 24.2794 17.5076 23.1292" stroke="black" stroke-width="2.46094" stroke-miterlimit="2.613" stroke-linecap="round" stroke-linejoin="round"/>
<path d="M30.413 38.6728C27.9553 38.6688 24.8761 39.6186 24.1581 42.6382M33.4484 39.4313C33.4346 39.4181 33.4203 39.4052 33.4052 39.3924" stroke="black" stroke-width="2.46094" stroke-miterlimit="2.613" stroke-linecap="round" stroke-linejoin="round"/>
<path d="M19.1479 6.4995L20.3788 7.47766" stroke="black" stroke-width="2.46094" stroke-miterlimit="2.613" stroke-linecap="round" stroke-linejoin="round"/>
<path d="M36.1604 50.9681C37.953 50.9506 39.2992 51.3234 40.1543 52.1261" stroke="black" stroke-width="2.46094" stroke-miterlimit="2.613" stroke-linecap="round" stroke-linejoin="round"/>
<path d="M10.7324 23.3606C10.7324 23.3606 9.8981 26.1765 10.2497 29.6042" stroke="black" stroke-width="2.46094" stroke-miterlimit="2.613" stroke-linecap="round" stroke-linejoin="round"/>
<path d="M49.4194 13.2802C49.4194 13.2802 47.0614 13.2454 45.6927 14.5481" stroke="black" stroke-width="2.46094" stroke-miterlimit="2.613" stroke-linecap="round" stroke-linejoin="round"/>
<path d="M49.2174 43.941C49.2174 43.941 49.4303 40.3358 49.9577 39.369" stroke="black" stroke-width="2.46094" stroke-miterlimit="2.613" stroke-linecap="round" stroke-linejoin="round"/>
</svg>
